<?xml version="1.0" encoding="utf-8"?>
<!-- Generator: Adobe Illustrator 27.5.0, SVG Export Plug-In . SVG Version: 6.00 Build 0)  -->
<svg version="1.1" id="Layer_1" xmlns="http://www.w3.org/2000/svg" xmlns:xlink="http://www.w3.org/1999/xlink" x="0px" y="0px"
	 viewBox="0 0 152.63 72.01" style="enable-background:new 0 0 152.63 72.01;" xml:space="preserve">
<style type="text/css">
	.st0{fill:#FFFFFF;stroke:#231F20;stroke-width:0.75;stroke-miterlimit:10;}
	.st1{fill:#EE4854;stroke:#231F20;stroke-width:0.75;stroke-miterlimit:10;}
	.st2{fill:#A9323C;stroke:#231F20;stroke-width:0.5;stroke-miterlimit:10;}
	.st3{fill:#FFFFFF;}
	.st4{fill:#624387;}
	.st5{fill:#6F478E;}
	.st6{fill:none;stroke:#221F1F;stroke-width:0.5;stroke-miterlimit:10;}
	.st7{fill:#FFFFFF;stroke:#221F1F;stroke-width:0.5;stroke-miterlimit:10;}
</style>
<g>
	<path class="st0" d="M145.06,71.82c2.76-24.4-14.28-44.08-44.87-44.87l-72.7-0.34l4.63-7.8l73.18,0.27
		c27,0.84,48.48,20.37,46.87,46.7l-0.18,6.21"/>
	<g>
		<path class="st1" d="M57.09,0.45l38.82,11.24c0.12,0.04,0.25,0.08,0.36,0.13l0.89,0.4c10.11,4.51,7.79,19.48-3.21,20.72
			l-0.67,0.08l-35.46,0.87l-0.5-0.01c-5.46-0.09-9.6-4.96-8.81-10.36l2.19-15c0.05-0.31-0.03-0.63-0.22-0.89l-0.89-1.22
			c-0.13-0.18-0.09-0.43,0.1-0.55l0.61-0.41c0.1-0.07,0.22-0.08,0.34-0.05c0.89,0.28,4.69,1.72,4.94,6.28
			c0.01,0.15-0.07,0.29-0.2,0.36l-0.75,0.42c-0.17,0.09-0.38,0.05-0.5-0.1l-1.1-1.41c-0.19-0.24-0.58-0.14-0.62,0.17L50.6,24.6
			c-0.38,2.81,1.5,5.43,4.28,5.99l1.58,0.31l0.74-0.29c0.89-0.34,1.88,0.09,2.24,0.97l0.19,0.47l15.92-0.36l6.8-4.73l0.14-0.42
			c0.44-1.36,2.18-1.72,3.13-0.66l4.25,4.75l0.99-0.59c0.86-0.52,1.97-0.36,2.65,0.38l0.33,0.36L95.89,30
			c6.99-2.65,7.52-12.32,0.87-15.73l-1.42-0.72l0,0c-0.22,1.22-1.6,1.84-2.67,1.21l-0.15-0.09l-11.78,4.98l-0.71,0.83
			c-0.67,0.78-1.89,0.71-2.47-0.14l-0.59-0.87L60.72,2.56L57.58,1.5C57.15,1.35,56.92,0.87,57.09,0.45L57.09,0.45z"/>
		<path class="st2" d="M88.63,12.39L68.52,6.07c-0.38-0.12-0.66,0.35-0.38,0.63l9.85,9.65c0.77,0.76,1.93,0.97,2.92,0.52l7.77-3.48
			C89.14,13.19,89.1,12.53,88.63,12.39z"/>
		<circle class="st2" cx="85.26" cy="30.37" r="2.3"/>
	</g>
	<g>
		<g id="XMLID_3_">
			<g>
				<path class="st3" d="M14.38,12.38l13.57-0.01c2.3,0,4.23,1.63,4.68,3.8l-18.24,0.01L14.38,12.38z"/>
				<path class="st3" d="M8.72,14.14h0.59c0.36,0,0.67,0.23,0.75,0.55l0.38,1.5l2.6,10.25v3.91h-0.08c-0.32,0-0.61-0.21-0.68-0.5
					l-0.03-0.12l0,0l0,0L8.11,14.65c0,0,0-0.01-0.01-0.01C8.15,14.36,8.4,14.14,8.72,14.14z"/>
				<path class="st3" d="M4.61,14.29h0.63c0.29,0,0.54,0.17,0.62,0.43l0.03,0.09l0,0l0,0l4.65,14.95c0.01,0.02,0.03,0.03,0.05,0.02
					c0,0.32-0.28,0.6-0.65,0.6H9.28c-0.29,0-0.54-0.17-0.62-0.43l-0.09-0.29l-4.6-14.74C3.94,14.58,4.23,14.29,4.61,14.29z"/>
				<path class="st3" d="M12.49,14.59h0.5l0.13,11.77v0.25l-2.67-10.42h1.03c0.13,0,0.25-0.1,0.28-0.23l0.19-0.92
					C11.99,14.78,12.22,14.59,12.49,14.59z"/>
				<path class="st4" d="M8.13,14.84c-0.02-0.07-0.02-0.14-0.01-0.21c0,0,0,0,0.01,0.01l4.14,15.08l0,0L8.13,14.84z"/>
				<path class="st5" d="M3.97,14.92l4.6,14.74L3.99,15.05C3.98,15,3.97,14.96,3.97,14.92z"/>
				<path class="st3" d="M3.44,15.99l0.52-1.07c0,0.04,0.01,0.08,0.02,0.13l4.58,14.61l-0.78-1.21H6.86c-0.05,0-0.1,0.04-0.11,0.09
					l-0.3,1.21v-0.01L3.4,20.07c-0.07-0.23-0.31-0.4-0.57-0.39H2.04c-0.37,0-0.64,0.33-0.54,0.66l3.05,9.74c0,0.01,0,0.01,0.01,0.02
					l-1.15-1.43c-0.1-0.13-0.26-0.21-0.43-0.21l-1.85-0.05L1.04,16.22H3.1C3.25,16.2,3.38,16.12,3.44,15.99z"/>
				<path class="st3" d="M32.63,16.17h0.1v0.97C32.73,16.81,32.69,16.49,32.63,16.17z"/>
				<path class="st3" d="M14.39,16.19l18.24-0.01c0.06,0.31,0.1,0.64,0.1,0.97l0.01,11.28L14.4,28.44L14.39,16.19z"/>
				<path class="st3" d="M0.43,16.55l0.61-0.35l0.09,12.19l-0.76-0.52c-0.08-0.06-0.13-0.15-0.13-0.25V16.88
					C0.25,16.74,0.32,16.62,0.43,16.55z"/>
				<path class="st3" d="M2.03,19.66h0.79c0.27,0,0.5,0.16,0.57,0.39l3.05,9.67v0.01L6.4,29.87l-1.83,0.24l-0.03-0.04
					c0-0.01,0-0.01-0.01-0.02l-3.05-9.74C1.39,19.99,1.66,19.66,2.03,19.66z"/>
				<polygon class="st4" points="13.12,26.36 13.12,26.62 13.12,26.61 				"/>
				<path class="st3" d="M13.12,32.88v-6.27v0.01v-0.26l-0.01-14.59c0-0.31,0.25-0.55,0.55-0.55h0.17c0.3,0,0.55,0.25,0.55,0.55
					v0.61v3.81l0.01,12.25v3.95v0.49c0,0.3-0.25,0.55-0.55,0.55h-0.17C13.37,33.43,13.12,33.18,13.12,32.88z"/>
				<path class="st3" d="M14.4,28.44l18.34-0.01v0.04c0,2.16-1.75,3.91-3.91,3.91L14.4,32.39L14.4,28.44z"/>
				<path class="st3" d="M8.1,14.64c0-0.01,0.01-0.01,0.02-0.01c-0.01,0.07,0,0.14,0.01,0.21l4.13,14.89l0,0
					c0,0.01-0.02,0.02-0.03,0.01l-0.6-1.15c-0.04-0.08-0.13-0.13-0.22-0.13h-0.5c-0.01,0-0.01,0-0.01,0.01l-0.29,1.3
					c0,0.01-0.01,0.02-0.02,0.02c0-0.05-0.01-0.11-0.03-0.16L5.89,14.82l0,0c0-0.01,0.02-0.02,0.02-0.01l0.87,1.41l0.01,0.01
					l0.62-0.02c0.07,0,0.13-0.05,0.16-0.12L8.1,14.64z"/>
				<path class="st3" d="M6.42,29.88l0.04-0.14c0.11,0.38-0.2,0.76-0.64,0.76H5.19c-0.29,0-0.54-0.17-0.63-0.42l0.03,0.04
					L6.42,29.88z"/>
				<path class="st4" d="M10.54,29.76L5.89,14.81l0,0l4.67,14.81c0.02,0.05,0.03,0.11,0.03,0.16
					C10.57,29.79,10.55,29.78,10.54,29.76z"/>
			</g>
			<g>
				<path class="st6" d="M14.38,12.38l13.57-0.01c2.3,0,4.23,1.63,4.68,3.8"/>
				<path class="st6" d="M32.74,28.43v0.04c0,2.16-1.75,3.91-3.91,3.91L14.4,32.39"/>
				<polyline class="st6" points="32.63,16.17 32.73,16.17 32.73,17.14 32.74,28.43 				"/>
				<path class="st6" d="M14.39,16.19v-3.81v-0.61c0-0.31-0.25-0.55-0.55-0.55h-0.17c-0.31,0-0.55,0.25-0.55,0.55l0.01,14.59"/>
				<path class="st6" d="M13.12,26.61v6.27c0,0.3,0.25,0.55,0.55,0.55h0.17c0.3,0,0.55-0.25,0.55-0.55v-0.49v-3.95"/>
				<path class="st6" d="M12.26,29.72l0.03,0.12c0.07,0.29,0.35,0.5,0.68,0.5h0.08"/>
				<path class="st6" d="M13.05,26.44l-2.6-10.25l-0.38-1.5c-0.08-0.32-0.39-0.55-0.75-0.55H8.73c-0.32,0-0.56,0.22-0.6,0.49"/>
				<path class="st6" d="M10.44,16.19h1.03c0.13,0,0.25-0.1,0.28-0.23l0.19-0.92c0.05-0.26,0.28-0.45,0.55-0.45h0.5l0.13,11.77v0.26
					v-0.01L10.44,16.19z"/>
				<path class="st6" d="M5.89,14.81l-0.03-0.1c-0.08-0.25-0.33-0.43-0.62-0.43H4.61c-0.38,0-0.67,0.3-0.64,0.63"/>
				<path class="st6" d="M8.57,29.66l0.09,0.29c0.08,0.25,0.33,0.43,0.62,0.43h0.66c0.37,0,0.65-0.28,0.65-0.6"/>
				<path class="st6" d="M8.12,14.63c-0.01,0-0.02,0-0.02,0.01l-0.51,1.45c-0.02,0.07-0.09,0.11-0.16,0.12l-0.62,0.02
					c0,0-0.01,0-0.01-0.01l-0.87-1.41c-0.01-0.01-0.02-0.01-0.02,0.01l0,0l0,0l4.65,14.95c0.01,0.02,0.03,0.03,0.05,0.02
					c0.01,0,0.02-0.01,0.02-0.02l0.29-1.3c0-0.01,0.01-0.01,0.01-0.01h0.5c0.09,0,0.18,0.05,0.22,0.13l0.6,1.15
					c0.01,0.01,0.03,0.01,0.03-0.01l0,0l0,0L8.12,14.63L8.12,14.63z"/>
				<path class="st6" d="M6.45,29.74l0.3-1.21c0.01-0.05,0.06-0.09,0.11-0.09h0.92l0.78,1.21l-4.6-14.74l-0.52,1.08
					c-0.06,0.13-0.19,0.21-0.33,0.21H1.05l-0.61,0.35c-0.12,0.07-0.19,0.19-0.19,0.32v10.74c0,0.1,0.05,0.19,0.13,0.25l0.76,0.52
					l1.85,0.05c0.17,0,0.32,0.08,0.43,0.21l1.15,1.43"/>
				<line class="st6" x1="1.13" y1="28.39" x2="1.05" y2="16.2"/>
				<path class="st6" d="M6.45,29.74v-0.01L3.4,20.06c-0.07-0.23-0.31-0.4-0.57-0.39H2.04c-0.37,0-0.64,0.33-0.54,0.66l3.05,9.74
					c0,0.01,0,0.01,0.01,0.02c0.09,0.25,0.34,0.42,0.63,0.42h0.63C6.25,30.5,6.56,30.12,6.45,29.74z"/>
			</g>
		</g>
		<path class="st7" d="M32.82,17.05l0.01,10.72c0,0.54-0.43,0.97-0.97,0.97l-17.49,0.01l-0.01-12.66l17.49-0.01
			C32.39,16.08,32.82,16.52,32.82,17.05z"/>
	</g>
</g>
</svg>
