<?xml version="1.0" encoding="utf-8"?>
<!-- Generator: Adobe Illustrator 27.5.0, SVG Export Plug-In . SVG Version: 6.00 Build 0)  -->
<svg version="1.1" id="Layer_1" xmlns="http://www.w3.org/2000/svg" xmlns:xlink="http://www.w3.org/1999/xlink" x="0px" y="0px"
	 viewBox="0 0 152.62 72.18" style="enable-background:new 0 0 152.62 72.18;" xml:space="preserve">
<style type="text/css">
	.st0{fill:#FFFFFF;stroke:#231F20;stroke-width:0.75;stroke-miterlimit:10;}
	.st1{fill:#26A9E0;stroke:#231F20;stroke-width:0.75;stroke-miterlimit:10;}
	.st2{fill:#1B75BB;stroke:#231F20;stroke-width:0.5;stroke-miterlimit:10;}
	.st3{fill:#FFFFFF;}
	.st4{fill:#624387;}
	.st5{fill:#6F478E;}
	.st6{fill:none;stroke:#221F1F;stroke-width:0.5;stroke-miterlimit:10;}
	.st7{fill:#FFFFFF;stroke:#221F1F;stroke-width:0.5;stroke-miterlimit:10;}
</style>
<g>
	<path class="st0" d="M145.05,71.83c2.76-24.4-14.28-44.08-44.87-44.87l-72.7-0.34l4.63-7.8l73.18,0.27
		c27,0.84,48.48,20.37,46.87,46.7l-0.34,6.38"/>
	<g>
		<path class="st1" d="M57.08,0.46L95.9,11.7c0.12,0.04,0.25,0.08,0.36,0.13l0.89,0.4c10.11,4.51,7.79,19.48-3.21,20.72l-0.67,0.08
			L57.81,33.9l-0.5-0.01c-5.46-0.09-9.6-4.96-8.81-10.36l2.19-15c0.05-0.31-0.03-0.63-0.22-0.89l-0.89-1.22
			c-0.13-0.18-0.09-0.43,0.1-0.55l0.61-0.41c0.1-0.07,0.22-0.08,0.34-0.05c0.89,0.28,4.69,1.72,4.94,6.28
			c0.01,0.15-0.07,0.29-0.2,0.36l-0.75,0.42c-0.17,0.09-0.38,0.05-0.5-0.1l-1.1-1.41c-0.19-0.24-0.58-0.14-0.62,0.17l-1.81,13.48
			c-0.38,2.81,1.5,5.43,4.28,5.99l1.58,0.31l0.74-0.29c0.89-0.34,1.88,0.09,2.24,0.97l0.19,0.47l15.92-0.36l6.8-4.73l0.14-0.42
			c0.44-1.36,2.18-1.72,3.13-0.66l4.25,4.75l0.99-0.59c0.86-0.52,1.97-0.36,2.65,0.38l0.33,0.36l2.05-0.78
			c6.99-2.65,7.52-12.32,0.87-15.73l-1.42-0.72l0,0c-0.22,1.22-1.6,1.84-2.67,1.21l-0.15-0.09l-11.78,4.98l-0.71,0.83
			c-0.67,0.78-1.89,0.71-2.47-0.14l-0.59-0.87L60.72,2.57l-3.14-1.06C57.15,1.36,56.92,0.88,57.08,0.46L57.08,0.46z"/>
		<path class="st2" d="M88.63,12.4L68.52,6.08c-0.38-0.12-0.66,0.35-0.38,0.63l9.85,9.65c0.77,0.76,1.93,0.97,2.92,0.52l7.77-3.48
			C89.14,13.2,89.1,12.54,88.63,12.4z"/>
		<circle class="st2" cx="85.25" cy="30.38" r="2.3"/>
	</g>
	<g>
		<g id="XMLID_2_">
			<g>
				<path class="st3" d="M14.38,12.39l13.57-0.01c2.3,0,4.23,1.63,4.68,3.8l-18.24,0.01L14.38,12.39z"/>
				<path class="st3" d="M8.71,14.15H9.3c0.36,0,0.67,0.23,0.75,0.55l0.38,1.5l2.6,10.25v3.91h-0.08c-0.32,0-0.61-0.21-0.68-0.5
					l-0.03-0.12l0,0l0,0L8.1,14.66c0,0,0-0.01-0.01-0.01C8.15,14.37,8.4,14.15,8.71,14.15z"/>
				<path class="st3" d="M4.61,14.3h0.63c0.29,0,0.54,0.17,0.62,0.43l0.03,0.09l0,0l0,0l4.65,14.95c0.01,0.02,0.03,0.03,0.05,0.02
					c0,0.32-0.28,0.6-0.65,0.6H9.28c-0.29,0-0.54-0.17-0.62-0.43l-0.09-0.29l-4.6-14.74C3.94,14.59,4.23,14.3,4.61,14.3z"/>
				<path class="st3" d="M12.49,14.6h0.5l0.13,11.77v0.25L10.45,16.2h1.03c0.13,0,0.25-0.1,0.28-0.23l0.19-0.92
					C11.99,14.79,12.22,14.6,12.49,14.6z"/>
				<path class="st4" d="M8.13,14.85c-0.02-0.07-0.02-0.14-0.01-0.21c0,0,0,0,0.01,0.01l4.14,15.08l0,0L8.13,14.85z"/>
				<path class="st5" d="M3.96,14.93l4.6,14.74L3.98,15.06C3.97,15.01,3.97,14.97,3.96,14.93z"/>
				<path class="st3" d="M3.99,15.05l4.58,14.61l-0.78-1.21H6.87c-0.05,0-0.1,0.04-0.11,0.09l-0.3,1.21v-0.01l-3.05-9.67
					c-0.07-0.23-0.31-0.4-0.57-0.39H2.05c-0.37,0-0.64,0.33-0.54,0.66l3.05,9.74c0,0.01,0,0.01,0.01,0.02l-1.15-1.43
					c-0.1-0.13-0.26-0.21-0.43-0.21l-1.85-0.05L1.05,16.22h2.06c0.14,0,0.27-0.08,0.33-0.21l0.52-1.07
					C3.97,14.97,3.97,15.01,3.99,15.05z"/>
				<path class="st3" d="M32.63,16.18h0.1v0.97C32.72,16.82,32.69,16.5,32.63,16.18z"/>
				<path class="st3" d="M14.39,16.2l18.24-0.01c0.06,0.31,0.1,0.64,0.1,0.97l0.01,11.28L14.4,28.45L14.39,16.2z"/>
				<path class="st3" d="M0.43,16.56l0.61-0.35L1.13,28.4l-0.76-0.52c-0.08-0.06-0.13-0.15-0.13-0.25V16.89
					C0.24,16.75,0.32,16.63,0.43,16.56z"/>
				<path class="st3" d="M2.03,19.67h0.79c0.27,0,0.5,0.16,0.57,0.39l3.05,9.67v0.01L6.4,29.88l-1.83,0.24l-0.03-0.04
					c0-0.01,0-0.01-0.01-0.02l-3.05-9.74C1.39,20,1.66,19.67,2.03,19.67z"/>
				<polygon class="st4" points="13.11,26.37 13.12,26.63 13.11,26.62 				"/>
				<path class="st3" d="M13.12,32.89v-6.27v0.01v-0.26l-0.01-14.59c0-0.31,0.25-0.55,0.55-0.55h0.17c0.3,0,0.55,0.25,0.55,0.55
					v0.61v3.81l0.01,12.25v3.95v0.49c0,0.3-0.25,0.55-0.55,0.55h-0.17C13.37,33.44,13.12,33.19,13.12,32.89z"/>
				<path class="st3" d="M14.4,28.45l18.34-0.01v0.04c0,2.16-1.75,3.91-3.91,3.91L14.4,32.4V28.45z"/>
				<path class="st3" d="M8.13,14.85l4.13,14.89l0,0c0,0.01-0.02,0.02-0.03,0.01l-0.6-1.15c-0.04-0.08-0.13-0.13-0.22-0.13h-0.5
					c-0.01,0-0.01,0-0.01,0.01l-0.29,1.3c0,0.01-0.01,0.02-0.02,0.02c0-0.05-0.01-0.11-0.03-0.16L5.89,14.83l0,0
					c0-0.01,0.02-0.02,0.02-0.01l0.87,1.41l0.01,0.01l0.62-0.02c0.07,0,0.13-0.05,0.16-0.12l0.51-1.45c0-0.01,0.01-0.01,0.02-0.01
					C8.1,14.71,8.11,14.78,8.13,14.85z"/>
				<path class="st3" d="M6.41,29.89l0.04-0.14c0.11,0.38-0.2,0.76-0.64,0.76H5.18c-0.29,0-0.54-0.17-0.63-0.42l0.03,0.04
					L6.41,29.89z"/>
				<path class="st4" d="M10.54,29.77L5.89,14.82l0,0l4.67,14.81c0.02,0.05,0.03,0.11,0.03,0.16C10.57,29.8,10.54,29.79,10.54,29.77
					z"/>
			</g>
			<g>
				<path class="st6" d="M14.38,12.39l13.57-0.01c2.3,0,4.23,1.63,4.68,3.8"/>
				<path class="st6" d="M32.73,28.44v0.04c0,2.16-1.75,3.91-3.91,3.91L14.39,32.4"/>
				<polyline class="st6" points="32.63,16.18 32.72,16.18 32.73,17.15 32.73,28.44 				"/>
				<path class="st6" d="M14.39,16.2v-3.81v-0.61c0-0.31-0.25-0.55-0.55-0.55h-0.17c-0.31,0-0.55,0.25-0.55,0.55l0.01,14.59"/>
				<path class="st6" d="M13.11,26.62v6.27c0,0.3,0.25,0.55,0.55,0.55h0.17c0.3,0,0.55-0.25,0.55-0.55V32.4v-3.95"/>
				<path class="st6" d="M12.26,29.73l0.03,0.12c0.07,0.29,0.35,0.5,0.68,0.5h0.08"/>
				<path class="st6" d="M13.05,26.45l-2.6-10.25l-0.38-1.5c-0.08-0.32-0.39-0.55-0.75-0.55H8.73c-0.32,0-0.56,0.22-0.6,0.49"/>
				<path class="st6" d="M10.44,16.2h1.03c0.13,0,0.25-0.1,0.28-0.23l0.19-0.92c0.05-0.26,0.28-0.45,0.55-0.45h0.5l0.13,11.77v0.26
					v-0.01L10.44,16.2z"/>
				<path class="st6" d="M5.89,14.82l-0.03-0.09c-0.08-0.25-0.33-0.43-0.62-0.43H4.61c-0.38,0-0.67,0.3-0.64,0.63"/>
				<path class="st6" d="M8.56,29.67l0.09,0.29c0.08,0.25,0.33,0.43,0.62,0.43h0.66c0.37,0,0.65-0.28,0.65-0.6"/>
				<path class="st6" d="M8.11,14.64c-0.01,0-0.02,0-0.02,0.01L7.58,16.1c-0.02,0.07-0.09,0.11-0.16,0.12L6.8,16.24
					c0,0-0.01,0-0.01-0.01l-0.87-1.41c-0.01-0.01-0.02-0.01-0.02,0.01l0,0l0,0l4.65,14.95c0.01,0.02,0.03,0.03,0.05,0.02
					c0.01,0,0.02-0.01,0.02-0.02l0.29-1.3c0-0.01,0.01-0.01,0.01-0.01h0.5c0.09,0,0.18,0.05,0.22,0.13l0.6,1.15
					c0.01,0.01,0.03,0.01,0.03-0.01l0,0l0,0L8.11,14.64C8.12,14.64,8.12,14.64,8.11,14.64z"/>
				<path class="st6" d="M6.45,29.75l0.3-1.21c0.01-0.05,0.06-0.09,0.11-0.09h0.92l0.78,1.21l-4.6-14.74L3.44,16
					c-0.06,0.13-0.19,0.21-0.33,0.21H1.05l-0.61,0.35c-0.12,0.07-0.19,0.19-0.19,0.32v10.74c0,0.1,0.05,0.19,0.13,0.25l0.76,0.52
					l1.85,0.05c0.17,0,0.32,0.08,0.43,0.21l1.15,1.43"/>
				<line class="st6" x1="1.13" y1="28.4" x2="1.05" y2="16.21"/>
				<path class="st6" d="M6.45,29.75v-0.01L3.4,20.07c-0.07-0.23-0.31-0.4-0.57-0.39H2.04c-0.37,0-0.64,0.33-0.54,0.66l3.05,9.74
					c0,0.01,0,0.01,0.01,0.02c0.09,0.25,0.34,0.42,0.63,0.42h0.63C6.24,30.51,6.56,30.13,6.45,29.75z"/>
			</g>
		</g>
		<path class="st7" d="M32.82,17.06l0.01,10.72c0,0.54-0.43,0.97-0.97,0.97l-17.49,0.01L14.36,16.1l17.49-0.01
			C32.39,16.09,32.82,16.53,32.82,17.06z"/>
	</g>
</g>
</svg>
